# xmcd
#
# Track frame offsets: 
#        183
#        17500
#        40518
#        75473
#        90028
#        105393
#        130745
#        148183
#        171393
#        197625
#        222745
#        249985
#        289893
#
# Disc length: 4229 seconds
#
# Revision: 0
# Processed by: cddbd v1.5PL3 Copyright (c) Steve Scherf et al.
# Submitted via: ExactAudioCopy v0.95a4
#
DISCID=a910830d
DTITLE=Peter Green - Best
DYEAR=1900
DGENRE=Blues
TTITLE0=In The Skies
TTITLE1=Slabo Day
TTITLE2=A Fool No More
TTITLE3=Apostole
TTITLE4=Momma Don'tcha Cry
TTITLE5=Baby When The Sun Goes Down
TTITLE6=Walking The Road
TTITLE7=Cryin' Won't Bring You Back
TTITLE8=Got To See Her Tonight
TTITLE9=Last Train To San Antone
TTITLE10=The Clown
TTITLE11=White Sky
TTITLE12=Just Another Guy
EXTD=
EXTT0=
EXTT1=
EXTT2=
EXTT3=
EXTT4=
EXTT5=
EXTT6=
EXTT7=
EXTT8=
EXTT9=
EXTT10=
EXTT11=
EXTT12=
PLAYORDER=
